<svg version="1.1" xmlns="http://www.w3.org/2000/svg" viewBox="0 0 1582 851.0000000000002">
  <defs>
    <style>
      @font-face {
        font-family: "Virgil";
        src: url("https://excalidraw.com/FG_Virgil.ttf");
      }
      @font-face {
        font-family: "Cascadia";
        src: url("https://excalidraw.com/Cascadia.ttf");
      }
    </style>
  </defs>
  <rect x="0" y="0" width="1582" height="851.0000000000002" fill="#ffffff"></rect><g transform="translate(136.44444444444434 111.00000000000023)"><path d="M0.3345083110034466 -0.1493195526301861 C295.46117101367565 0.029731097914278526, 590.8957309026272 -0.634310826562345, 1358.7974024407565 0.21321775987744332 M-0.2592988129705191 0.18699910007417203 C311.6377354105935 -4.5179124981984495, 623.052873042971 -4.175934222422541, 1357.877871561423 -0.06185855306684971 M1357.5029934518038 -0.6030879728496075 C1360.2606145101151 149.76833482393997, 1360.3066400008759 301.1640992039815, 1358.0250787131488 728.374562407285 M1357.6937085632235 -0.19394463934004308 C1359.1937188466677 209.50150452135136, 1359.535043831695 419.36614885721366, 1357.6012650612743 728.8657727655024 M1357.2643916480242 729.2492417819798 C979.4730282584205 733.5250591271744, 599.233849164471 734.4111072295532, 0.6158584706485272 729.1042366750538 M1357.7087860230356 728.6101179536432 C1017.0538166688755 729.4432408093735, 676.1639477938412 729.946905028753, -0.36067125760018826 728.6377243813128 M-0.6999738581478596 729.3618933446705 C1.866462072495371 548.2994995250367, 1.3338574973382056 366.65856642927974, 0.4190337054431439 -0.024004554003477098 M0.32515475787222387 729.3453172501177 C-2.1072473028488456 539.7029863242991, -2.057674179393798 350.6559003783389, 0.3785494212061167 0.15911104045808316" style="stroke: rgb(0, 0, 0); stroke-width: 1; fill: none;"></path></g><g transform="translate(191.44444444444434 166.00000000000023)"><path d="M-1.019472779252503 1.1805495024244403 C80.64519477640047 -1.9236239100005366, 159.93233611801764 -0.029805548292014872, 284.2118196576125 -1.3127441862048765 M-0.04656005530710928 0.4695326705278765 C108.48970170166331 -1.567697312361106, 217.0416058890464 -1.320669708325955, 283.87732856875095 0.15747977751858344 M283.58967228010295 -0.5293671496212483 C282.27979348925874 252.75375906871633, 281.5286574485712 504.3644357936457, 283.4065522439778 675.083369051665 M284.20742093883456 -0.38386151753365993 C283.51516921082515 228.43329812651498, 283.366295130644 456.97728920672085, 284.20319371782244 675.36395300664 M284.99176894561396 674.0622249302489 C171.2173971012783 673.5358898961683, 61.644390874889254 674.10076192643, 0.8497599224005244 674.0091213957165 M284.12236535589136 675.2672126308661 C173.96674530496307 676.2750842327143, 63.57643081728442 676.6399674721629, -0.43146090201088894 675.4912958323781 M-0.0017627231776714326 674.7115894906223 C1.8608621788211166 478.27818846507, 2.7459489774890242 280.15568755548446, -0.2340267412364483 -0.7048262245953083 M0.10703210197389126 675.146594381705 C-0.8583001994527877 495.1223255545832, -0.9463672422803938 315.2398539839312, -0.023367756977677345 0.015002930536866188" style="stroke: rgb(0, 0, 0); stroke-width: 1; fill: none;"></path></g><g transform="translate(137.44444444444434 112.00000000000023)"><path d="M0 0 C0 0, 0 0, 0 0 M0 0 C0 0, 0 0, 0 0 M-0.07734927084761356 7.053485202093713 C1.535006670218511 4.191430013697168, 3.378620414684789 2.764011170644543, 5.532328705819792 -0.021686933577317602 M-0.15750193629878256 6.004171208714239 C0.6888487919362176 5.425315398133942, 1.5154590083682116 3.8780769964291375, 5.240123778539247 0.5542683072236592 M1.0399466746579518 11.446111007451593 C5.603709348877075 7.944681953293408, 9.760195374666296 1.21732191465126, 10.645995438051354 -0.2555989255115627 M0.3055515066813337 12.656957608133137 C3.14050721515585 8.631921599550257, 5.181428872298099 5.736383679047116, 10.578123035234345 0.2756446945562723 M-1.6850586133590202 16.695991427545124 C4.155977672629268 14.335512808075705, 9.234432868131208 8.249517898805843, 13.736439918636759 -1.270722148295028 M-0.4509034026926617 18.602165503334874 C3.3672569030888733 14.612507775603792, 7.316859111461936 8.961476541382517, 15.94239280419745 0.28101675183744934 M-0.994394236970761 25.556144371344804 C5.288758472884425 18.756596159750618, 9.050162561355704 13.150769464806062, 22.629035312959815 -0.03918632174138992 M0.45231492185958366 23.653950270912706 C4.641707029530943 18.44843712033286, 11.157394923800405 12.523269834187198, 20.75353866005119 -0.1381188738927719 M0.9368614247580425 32.378329969708076 C3.512120818175468 23.635336402351218, 9.189300849582963 16.803515117536072, 26.47090119184217 -1.1919923523429095 M-0.2905226926738962 31.319597412597588 C8.936060621569977 19.521236122636267, 17.414795398646444 9.963972199388468, 26.205402258459838 0.9089943490934314 M0.9231536312866488 37.86956959944342 C6.220242424301166 26.030416833995222, 16.91517689007595 17.158818018239742, 32.464963718733586 0.9594996814861183 M0.5190316987130323 36.499762338401126 C8.99746522934713 26.694151667714195, 16.021003397299122 17.307161118276127, 32.114404635920025 -0.8779868119151111 M-0.2855254829256779 43.52008776235931 C13.411705079377473 28.310479522520165, 23.600910821403893 15.657559025913024, 37.312959816121804 -1.2815288527775088 M-0.1852223964734918 43.25037389583491 C11.06054321765154 30.085229445197733, 20.739453450373876 18.75042583797858, 37.81433227546637 0.46845616876152363 M0.7156860046087914 48.17994082593255 C8.102431750514269 35.10252068924923, 19.753333634876437 25.175239996694255, 43.151409397456575 1.2774682164519078 M0.4539390048011356 49.39051311057888 C14.808937139666137 32.33352152118495, 29.54436752530983 14.909481454494653, 42.5610593385955 0.4897769334121591 M3.2346100943113427 52.82442122108051 C16.475940676060056 35.74539922047685, 32.65584768855212 16.653287322243386, 48.99064313522565 -0.9314214933488323 M2.9340046510050755 52.29906738425353 C17.172397006310188 33.78252045697131, 34.27052392236389 15.719968212264341, 48.44032543334204 0.68279088271672 M7.952879545641238 51.16836282461169 C23.192742150065968 34.07591638919116, 42.280820381845544 13.303988924905575, 54.650774692878784 -1.9617455605940215 M8.332328737144465 51.56028587687048 C17.032477169611433 40.101141139028755, 26.71273420210663 29.703230768667666, 52.77245784620261 -0.19425146603596133 M13.64526079012418 52.242769699893955 C27.256525323936877 34.98539146621074, 42.92377477181983 18.622161920008004, 50.95225626097967 6.035166523975306 M13.494203817791881 52.57165824750072 C28.950901813691214 34.95784184965555, 43.77758625508392 17.84529411497722, 53.771677078287794 6.297438804616206 M19.708039366209928 51.386672393513024 C26.441898105519797 41.649626101128014, 38.17322590514726 29.39740090229588, 51.397267484902095 12.971996790162681 M19.02999624194396 51.5670209509331 C29.422864461981497 39.17884810609658, 40.292941286556214 26.189938692968404, 52.69623577301825 11.470232445179878 M24.973811571386232 51.61614289794568 C35.077813704780326 38.7652860386724, 45.674432818784666 25.416829714534334, 51.86332653713383 17.2886453554449 M22.598687805135324 52.01682220034752 C34.83656623539463 37.96868045595294, 47.25181785126643 24.853021621744137, 53.01077978842862 18.004538606334975 M29.647456694102843 51.899118009777645 C37.828102066357594 39.99654492695855, 48.6050362453513 28.675748027017107, 51.13167555213412 22.94408672163044 M28.3125979813626 50.93419532553283 C36.60543213391458 43.92564578279894, 43.54539376444533 33.519316036242984, 53.383483632025026 23.971911135593103 M32.74516478184751 53.5055759714857 C39.11597489759555 44.76839959441533, 48.6246287550143 39.00329722860662, 53.606603539362226 31.99299851552778 M34.64516169116041 52.25638541466894 C40.076295098307924 46.12067832360834, 45.557818884286675 39.86710823518828, 53.8741233738136 29.44292731796586 M38.03040887306997 52.28235982965554 C42.752020106067256 47.868394963605006, 44.43390876933067 47.60037692629608, 54.03476929630587 35.162390229613706 M39.83565153352538 51.15082267254467 C44.48682482288321 45.100866373955014, 49.277414227524964 39.85330525404109, 53.122149559328946 36.09506661663316 M43.91031370525289 52.70786857065036 C46.7367694975982 50.53587670029191, 47.079063180133005 47.480901470712716, 54.26127448716164 41.39449833504821 M44.13390251793008 51.66344531127475 C47.036966802278116 50.294352778795826, 48.92933237903487 48.2506334766952, 53.16292775791102 42.29953067813966 M50.539173131049495 52.14046765680187 C50.92723497205585 50.793023991781766, 51.75946745315706 50.904974763494685, 52.67915578088222 48.9225658083267 M50.22624837698869 51.74966438769125 C50.95243829251734 51.00543757885238, 51.511969737385876 50.12977581621279, 53.021103295259756 48.67103232628922" style="stroke: rgb(134, 142, 150); stroke-width: 0.5; fill: none;"></path><path d="M1.012426821514964 -1.1448986511677504 C15.263783314917237 1.9048719154577702, 34.29367183651775 1.4681862937193364, 54.70887723378837 1.2129521984606981 M-0.9271590998396277 -0.8969083586707711 C11.037884128559382 -0.5294547742512077, 23.379728847742083 -1.1311893826629966, 52.64591515157372 -0.029718385078012943 M51.25581374578178 -1.6146773677319288 C55.27185725187883 11.145328021608293, 54.86125569557771 23.316773306578398, 51.70278104953468 51.9440420884639 M53.74129378888756 0.9924833914265037 C52.963119314517826 17.86989670433104, 53.60782887181267 33.78406748641282, 53.77500131819397 50.08863054122776 M53.7324598710984 50.57043779082596 C35.19286625301466 50.97092433539219, 19.355022436566657 51.71610440579243, -0.23832985945045948 49.57935446687043 M52.08787110541016 50.62612925376743 C39.5836123063229 51.17169371179305, 27.167397673800583 49.43022864989005, 0.5105871567502618 50.552643491886556 M0.3019233029335737 48.139755906537175 C0.616247630212456 31.869670477695763, 1.7336802841164172 13.191322796046734, 1.1650244873017073 0.8970265407115221 M0.8825008282437921 49.197480156086385 C-0.137554123532027 33.583551440387964, -0.06890390766784549 17.477754705585536, 0.7407647082582116 -0.5467676678672433" style="stroke: rgb(0, 0, 0); stroke-width: 1; fill: none;"></path></g><g transform="translate(137.44444444444434 162.00000000000023)"><path d="M1.1509431023150682 1.1744918506592512 C19.737141831126067 -0.1330191138666123, 35.26139178369195 -0.8752189520280809, 53.85096657462418 1.0075236838310957 M0.9046999355778098 0.7705902764573693 C10.228951732348651 0.5714265946950763, 22.68407720923424 0.7148362938966601, 52.08223365154117 0.5005935439839959 M53.13965475745499 1.274797109887004 C52.266230332199484 16.91983274463564, 53.431965517345816 31.877763200551275, 51.80867427773774 51.51606067828834 M52.50391815509647 -0.3667353382334113 C51.917228213045746 20.153268849477172, 52.05197241017595 39.80291266273707, 53.422341420315206 50.84270003531128 M53.591915072873235 50.33248266391456 C38.5116259121336 50.30076029616408, 19.565310826711354 49.53373822289519, 1.160899879410863 51.79807904176414 M53.37421543803066 49.75340917799622 C40.369854813907295 49.60504490100779, 26.834929881617427 50.38339379393496, 0.403492852114141 49.0034644016996 M-0.8469512443989515 50.81648161821067 C-0.02562059322372079 35.21261103730649, -1.3642990128137171 15.715946801006787, 0.6642962116748095 -1.7575662452727556 M0.48540989961475134 49.22126430366188 C0.14121807320043445 34.33333482965827, 0.9774183402769268 18.256990781985223, -0.6382830003276467 -0.5587088158354163" style="stroke: rgb(0, 0, 0); stroke-width: 1; fill: none;"></path></g><g transform="translate(137.44444444444434 214.00000000000023)"><path d="M0.5919150728732347 0.33248266391456127 C17.029713727440686 0.7049815943557769, 29.60148645732552 -0.062040478913113484, 54.16089987941086 1.7980790417641401 M0.37421543803066015 -0.2465908220037818 C14.259007296990603 -0.8020897485408932, 27.613234847784042 -0.02374085561372341, 53.40349285211414 -0.9965355983003974 M52.15304875560105 0.8164816182106733 C53.79400588804856 17.513955452479426, 52.45532746845856 30.31863563135267, 53.66429621167481 48.242433754727244 M53.48540989961475 -0.7787356963381171 C52.15718605229631 16.932207023724914, 52.9933863193728 33.45473517011851, 52.36171699967235 49.441291184164584 M53.62658363766968 51.81877395324409 C32.133717759791764 50.46574816483073, 14.916061308793722 49.301101122079416, 1.0462192315608263 48.0485266726464 M52.27509309258312 50.01867207977921 C35.27777243861928 50.281047077411785, 19.303293238207694 49.77722090625204, 0.1945663532242179 49.91243648622185 M0.28675067611038685 51.74188652448356 C-0.9599138931371272 37.011202591471374, -1.1606719330884516 27.11172402650118, 1.3172280211001635 -0.08619347400963306 M0.9923800071701407 49.17532610986382 C0.08488772017881274 36.938247349113226, -0.12635730998590589 22.54235606547445, -0.29513315949589014 -0.3727420261129737" style="stroke: rgb(0, 0, 0); stroke-width: 1; fill: none;"></path></g><g transform="translate(136.44444444444434 265.0000000000002)"><path d="M0.9440716188400984 -0.7188869696110487 C18.54660142371431 -0.9826917381305247, 39.416310717724265 0.5941228537540884, 54.954452542588115 -0.6213167291134596 M0.6321583101525903 0.9137893756851554 C16.540401453245433 -0.12662162899039686, 34.94928641915322 1.0229808139894159, 52.381915987469256 0.46663112845271826 M53.86506703309715 1.6507546324282885 C52.201658686157316 17.458998835645616, 52.7096247873269 36.24667609855533, 53.80601855926216 49.32187414355576 M52.676070869900286 -0.38303904328495264 C52.879890458192676 10.217948848381639, 52.590920434799045 21.812908564694226, 52.75834903214127 49.266130491159856 M53.8409769218415 48.796994211152196 C42.067391007300465 51.78911322739906, 27.60138985533267 49.36004937079735, -1.459681125357747 49.7323978561908 M52.22263178322464 49.65880803670734 C41.193912006821485 50.88879527322017, 28.130982979014515 50.89292995802127, 0.9740087995305657 50.37876213993877 M-0.11629685945808887 48.234297098591924 C-0.705702060367912 40.34969249088317, 1.1547611416317523 27.632631294429302, -0.035822780802845955 -1.2014521341770887 M0.6218471536412835 49.18395341839641 C0.5436968361027539 34.08125999942422, 0.14729540096595883 16.62750666681677, -0.19043454434722662 -0.4658901849761605" style="stroke: rgb(0, 0, 0); stroke-width: 1; fill: none;"></path></g><g transform="translate(154.94444444444434 121.00000000000023)"><text x="0" y="23" font-family="Virgil" font-size="20px" fill="#000000">T</text></g><g transform="translate(157.94444444444434 171.00000000000023)"><text x="0" y="23" font-family="Virgil" font-size="20px" fill="#000000">L</text></g><g transform="translate(158.44444444444434 223.00000000000023)"><text x="0" y="23" font-family="Virgil" font-size="20px" fill="#000000">H</text></g><g transform="translate(156.44444444444434 274.0000000000002)"><text x="0" y="23" font-family="Virgil" font-size="20px" fill="#000000">+</text></g><g transform="translate(213.9444444444439 246.00000000000023)"><text x="0" y="23" font-family="Virgil" font-size="20px" fill="#364fc7">cart</text></g><g transform="translate(212.4444444444439 275.0000000000002)"><text x="0" y="23" font-family="Virgil" font-size="20px" fill="#364fc7">cart_item</text></g><g transform="translate(210.9444444444439 340.0000000000002)"><text x="0" y="23" font-family="Virgil" font-size="20px" fill="#364fc7">ticketing</text></g><g transform="translate(209.9444444444439 308.0000000000002)"><text x="0" y="23" font-family="Virgil" font-size="20px" fill="#364fc7">event_date</text></g><g transform="translate(211.9444444444439 372.0000000000002)"><text x="0" y="23" font-family="Virgil" font-size="20px" fill="#364fc7">ticket_price</text></g><g transform="translate(203.4444444444439 189.00000000000023)"><path d="M1.136276172751808 -1.2233610974679945 C66.87766002846551 -0.3879100276987638, 135.3078022070308 0.16610397506612865, 256.10187225908606 -1.2537432579233168 M-0.778349366138172 -0.700499255707836 C95.12505503562542 -0.8731522164276435, 191.03758479940072 -0.5313376897339179, 256.55327781505997 -0.28666604125165934 M256.6654323954135 -1.9128409940749407 C258.20333211638035 9.864802409335972, 256.5184870860726 17.181109676882627, 257.72607064433396 32.156072644516826 M256.05127437319607 0.0652685472741723 C257.74086180027575 13.285155777074397, 256.88916819985957 25.635567642189564, 257.42932955827564 32.16710752341896 M256.453921319346 33.27567335300808 C169.72403066425377 34.75639992223781, 80.86302444451304 34.78428272226833, 1.0791598951333998 33.14162118434963 M257.31725347101394 32.46150571329241 C193.42959016571143 34.147790278638496, 127.96052626617067 33.20599409107441, -0.6557520956395148 32.689304984975145 M-1.6132230143994093 32.11187192611396 C-0.13598531566560274 26.767154629155993, 1.6726808539777993 17.876506469771265, -1.841582415625453 0.9752153437584639 M0.7726323744282126 31.737346024252474 C-0.4409084117785096 25.082246599532663, -0.436788032092154 16.585320735909043, 0.6341451248154044 0.8193199643865228" style="stroke: rgb(0, 0, 0); stroke-width: 1; fill: none;"></path></g><g transform="translate(210.9444444444439 187.00000000000023)"><text x="0" y="23" font-family="Virgil" font-size="20px" fill="#000000">ticketing</text></g><g><g transform="translate(448.4444444444439 198.00000000000023)"><path d="M-0.8172526706010104 -0.8036625813692808 C-4.846464680507779 -0.896592791005969, -20.16231590397656 0.04899914748966691, -23.996465276554225 0.2246354509145021 M-0.7592080513481052 -0.15184662437997765 C-4.775011363709345 -0.49353761381469674, -18.832654442572963 -1.032597439652309, -22.80840544589795 -1.0992789400275798" style="stroke: rgb(0, 0, 0); stroke-width: 1; fill: none;"></path></g></g><g><g transform="translate(443.4444444444439 197.00000000000023)"><path d="M1.0906269561499358 -0.7461996864527464 C-0.46875053532421584 2.276242698108157, -7.788076566532254 14.82272358822326, -9.605064760521055 17.918944888189436 M0.07432254723273224 0.8236774712149053 C-1.483536591315642 3.318533935978388, -6.577864250028505 13.661453540657337, -7.844786985302344 16.527432470554487" style="stroke: rgb(0, 0, 0); stroke-width: 1; fill: none;"></path></g></g><g><g transform="translate(426.4444444444439 197.00000000000023)"><path d="M0.6239626217633485 -0.7002848614007234 C1.7152657597015302 2.7601532192279894, 6.509531963740787 17.050755064810314, 7.549455325677991 20.35802580229938 M0.1512882038298995 1.1328870730753988 C1.5366541436656067 4.638835549171393, 7.6596814595007645 16.677064894751336, 8.531904422575607 19.918382147168742" style="stroke: rgb(0, 0, 0); stroke-width: 1; fill: none;"></path></g></g><g transform="translate(201.4444444444439 122.00000000000023)"><path d="M0 0 C0 0, 0 0, 0 0 M0 0 C0 0, 0 0, 0 0 M-0.6162830590875694 6.580593071182363 C1.5565570270385942 5.037728469747577, 3.206975555442924 3.2076187147449016, 4.442435378166384 0.9374939087626749 M-0.3199933003308127 6.383538018589013 C2.0991685866257415 3.8671963911040956, 3.4948290908450783 1.8120889764588968, 5.370995103525466 0.24399671702061232 M-1.4127594447601928 10.469020574211656 C4.242973738369111 9.912010855402503, 7.158051124765399 5.574886294287298, 9.518155518126619 -0.6163736124441266 M0.6026125312875616 11.289676375358878 C2.910224785913926 8.710708088217805, 5.04559267389438 7.37742029043604, 11.376910353404416 0.13828008203653108 M0.7413298030802746 16.891241368745142 C4.331157766566341 13.51170596484265, 5.197525726240047 9.46568358696193, 17.133276471405704 -0.5734834385174343 M0.8568196556949754 17.70191693296718 C3.835554790781086 14.29002458544062, 8.623711023416536 8.278452434740279, 16.23116891691782 -0.2072461231681535 M-1.6631332838722255 24.853611390753745 C7.425506720268248 15.95847012444759, 14.170792682651273 7.012055789153475, 20.27989982841339 0.8418391378759864 M1.0815341688878153 24.696223570681273 C6.109798611416283 18.765530282425043, 11.101395888765532 12.848879717290396, 21.894647066758836 0.3057813108130816 M1.3850348620255843 30.158320311222425 C9.60662468596199 19.15677733606365, 18.488533001359553 10.73498142866914, 25.001529906552644 -1.213304563051766 M-0.1835286467755779 30.0291869703198 C8.705762865370676 20.522931315267854, 14.835865406741325 12.737508095344527, 25.936359362353 -0.06064362414062607 M3.690551313766985 34.782806664728845 C12.512267436522395 25.236642640625938, 20.138664622165074 11.84256248613914, 32.52709384583572 0.04286502872251319 M1.7318573149012018 34.664787414507295 C11.416854455903799 23.824196583216434, 21.29596228273869 12.711842836673139, 31.768124789415694 -0.15245742245919658 M6.185277240354754 32.45726544107344 C16.91785495973087 22.877964966451856, 23.368766825106725 15.642308350928825, 36.05698579531287 -0.4034873208868781 M6.497132568624057 34.02581632859107 C16.283406144542433 23.750200258291915, 24.586032045507686 14.115250015693007, 35.92654965520029 -0.6864066951814571 M13.336186645886585 34.14453430728436 C18.883516284897347 26.6505270581358, 23.2608600064313 21.291293420966007, 42.324039144996334 -0.7119882918567413 M13.220170776693806 33.94251250264615 C21.83116599661917 23.582090294061715, 30.504502775162155 12.853813848554296, 42.66524982042216 -0.1314748117373341 M17.92298792037474 34.388111583384806 C28.382269302954988 25.37082418585777, 35.40086196891679 13.15071337086395, 48.65755429393637 0.5371206317272232 M18.256150299825837 34.469330067242616 C28.478978221280755 23.475300354308313, 39.43240614420486 10.321626132290021, 47.05012846733469 0.4850447418343471 M22.821856462869462 35.810880785289086 C31.408157598663195 25.525848014753862, 36.1960620376335 18.179169426021364, 52.54427088214523 -1.007193480111777 M23.022536820273515 34.852413036341645 C30.54737388809412 24.644533204898394, 39.04125221962752 16.630966909839334, 53.55159833165324 -0.303878278896331 M29.910347884392504 36.51964356324317 C39.33604272641774 20.257931565724725, 50.574959467405705 6.511598707740891, 56.692395558673155 1.2584216385405504 M27.93524654476172 34.40287824573608 C36.35628134733968 24.223659033380045, 46.71654813296429 14.841877163993612, 57.139859470631194 0.788915765031799 M32.41172092096562 35.05674844249303 C43.90684642086161 22.350268812407123, 52.8591376990893 9.792892289865264, 62.5925742135324 -0.458473192292594 M32.784219117515335 33.91719409371878 C42.369678636957445 25.296986493598347, 50.50243555359083 15.832362495956136, 63.877121494983925 -0.07665024581118729 M37.23926034663906 33.351719563952976 C51.457096367287726 22.972781033611955, 59.3389323544249 10.307909932562133, 67.58191974577322 0.37906804330308574 M38.108990533287724 34.09755928175091 C50.934940040845014 21.18085949861456, 63.306368338472346 8.586214365676316, 68.01288133696481 -0.673963547464119 M43.90119017642506 34.1257896226462 C55.10680939566502 19.148446185244723, 66.49756403250387 7.217898087895545, 74.40498429540786 -0.7128000846491886 M44.13485634029426 35.42518575290256 C53.12347669582513 22.88141223394603, 62.28028848650858 13.088897313447596, 74.57614548228922 -0.5911481343568994 M47.56470143437389 35.617076509487006 C61.272575752257154 21.332662086344865, 70.59735898769105 10.003140424088478, 80.27778701148657 1.4864621897648505 M48.86814940828833 34.354225333634886 C62.03033768656643 20.340712370893094, 73.80622806081749 6.371275834152232, 78.47070773821054 -0.037138117528385806 M54.61692438549778 36.230406669498585 C64.57096170632332 22.161676632556784, 74.67415967598569 13.603011308192404, 86.4487862840216 0.5516031865684283 M55.6884621604853 34.43034309201797 C63.85440152072951 25.24784231997696, 70.77997009062324 15.853209155285342, 85.06737146544413 0.27689563359152203 M61.72895630384699 33.26249174359525 C72.05836773876928 20.861935396317733, 83.74309014983842 9.518595158646882, 91.26290751206318 -0.8632435783241732 M59.44392434163854 34.484643979512995 C69.10346647448327 23.38051463481134, 79.57362587756077 12.596094025645353, 89.29922734624336 0.3314721329639809 M67.41683370443378 35.55175192680019 C77.53460908444751 21.28159380975656, 87.12165840668641 8.12247817347582, 95.72251533562363 -0.37473603488973595 M66.04342524996345 33.75224618919003 C75.92343739189565 23.226876185554055, 87.5682912218086 10.457182413371822, 96.25387561632365 -1.082626363840916 M71.10556011130839 34.203492610027716 C81.92574618765887 23.31940359934103, 89.92146631747144 9.007593965108512, 100.5514414037531 0.854853082786029 M70.55189150521338 34.06620779751025 C78.99444688076949 25.307584728319192, 87.66468231186201 14.095898012374416, 100.26870383293831 0.8295722821379954 M76.69007828948307 35.23972773830101 C84.73884785580779 24.05002985821809, 92.45100845310478 16.27747645411643, 107.75595660646391 0.7674595947263256 M76.7825092806037 34.97610012254373 C85.92331790095443 22.83669074754772, 97.16501227328855 10.620606504893672, 105.52310910680276 -1.0141965485292062 M79.59929801300807 34.324356452534396 C92.56356322303131 20.020332262825576, 103.8618665878254 8.819172147949136, 109.68879884280629 1.1344045168454429 M81.39200207088781 33.94193436575164 C89.07640917126176 25.797487743158154, 96.93440673587881 17.895330890064564, 111.13377587017037 -0.37950759188135663 M86.35706829689563 33.41298644775107 C92.3297492727477 27.475672039864303, 99.07722784577001 18.622143610950886, 117.954086223802 -1.039073000610621 M87.47285292428107 33.45273497020408 C96.62802306691984 23.925070167001486, 106.90684032983708 12.03382553669329, 117.090839079766 1.1580372378744173 M93.64620516519602 35.4781106148653 C96.54331334708563 27.043459828962803, 106.05767206009529 21.006738913602664, 123.75163998547276 -0.5621869323959174 M92.64858221053686 35.22046626236218 C100.10161189799145 24.459384531095168, 109.93643046736757 14.058806677106936, 122.63345712981453 -0.3668124109690609 M95.86946388292148 33.158930398900324 C109.71536483832638 22.790427514764566, 120.39850158980963 8.404943394542418, 128.22130740186884 -1.106975637596129 M96.66596985287055 35.29860581029605 C105.31821591928752 25.478185137852137, 115.08226299626133 15.088728238996122, 127.62538476506933 1.1114234130494012 M104.21356672412226 35.486532440770425 C113.39122264491192 25.344480008788075, 120.03494190715274 11.253255005252168, 133.3478749880025 -1.8037689211880519 M101.49033309603551 34.27607106546686 C111.96665777504278 22.96710829101754, 121.63460804547269 10.236579108727842, 133.4911362837458 -0.4377620970001175 M106.21017520381062 32.53371193549879 C112.45625010255173 26.923599945254175, 120.36987626810942 19.565049295138312, 137.025096267924 1.4839886077425746 M108.89774873824715 34.39579272094466 C119.559841720917 22.09030049636678, 130.3316259292539 9.48315815521418, 137.3112633055973 1.0530641353435186 M112.79991784603678 34.14014927399976 C122.13900626007346 23.132789970887558, 131.63509785078327 13.322941926908069, 144.61666400664555 0.8095608942190182 M112.57033089925878 33.74864135319067 C124.0302762441094 22.135236595180533, 136.77441439635209 8.325821456162082, 143.41457700383918 0.8678484281504524 M117.89336241581302 34.5622334012965 C123.94669827597545 24.76562594480631, 131.8451276769493 15.815477679474132, 148.0202379782174 -1.1319029208444817 M117.68845325228583 33.392000780274934 C125.28534151531274 27.3171937399593, 131.89174654749792 17.491519476809426, 147.47342587322484 -0.299023017118202 M125.43504368718958 35.198238458303315 C134.737367852312 23.230921677398392, 145.66075355302377 7.289080382086496, 153.22841719765188 1.646454857575307 M123.02602679208165 35.54369470365862 C133.406875281328 22.428722136274722, 143.12288203994186 11.395249480794586, 154.0959179619697 0.7758492426076629 M128.96443567517872 33.23814714004342 C137.49430049963257 25.819139202682507, 146.40320816418696 16.005955839951735, 159.39276768899913 1.1483771203926665 M128.54272206686164 34.70056006641183 C137.06056970932792 25.972213163151093, 144.10677778908766 17.168418175725208, 158.92119863982703 0.03880453378920379 M134.67997940383066 36.38882733743109 C140.6309878318529 27.035602885252025, 147.28985905026082 18.740047896275417, 166.38479471727146 0.044315312630814674 M133.47924694637913 33.83237369499572 C144.01439984335246 21.71708245565167, 155.60581720281192 10.080990817262315, 164.21167283001228 -0.722304575503486 M141.00005513815768 35.52385549548955 C145.90919445245743 25.109365300139068, 154.50788591078955 16.46757881182348, 169.8599705565191 -1.6033939247959665 M139.94956885384954 33.50042565748037 C150.94949144923447 20.093706776467254, 162.81798355256865 7.6742151443096915, 168.9482827772788 0.3158143661907502 M145.62701015221003 35.408693255133095 C153.6079438194226 23.009793700210107, 162.12170808016754 17.083050611698248, 176.81870672175432 -1.6907053968644448 M145.03619253402624 34.051445905326965 C151.5737287959817 25.670686966490297, 160.18209601329994 17.28452047979389, 174.42273027984197 0.1304670519420199 M148.4520719320094 36.10522039160767 C161.0183325755933 21.377033213357457, 172.21247366058853 9.535515906171678, 180.67038173702736 -1.3466887126603808 M149.72632325613404 35.49088721182832 C155.56171942627734 27.906319260595737, 161.4980879101794 20.685351676653422, 180.33275445745517 1.0468990582114373 M153.89967108857766 35.923363555159305 C168.9975455609333 20.53040385420681, 178.14244306275637 6.523473461977954, 184.7943133673505 -0.28370492716049966 M156.28743972689793 33.90330391277734 C165.95068823843968 21.213993179238425, 177.34652162599787 10.380920466428378, 186.3743539833338 -0.14313079693084774 M159.27176427096498 36.372725011702244 C170.3945085899225 21.826985914198506, 184.2871530386445 9.147537062779492, 189.60378638677395 1.9277701005494237 M160.6428670035712 34.87273064713514 C170.0388237370894 23.264140343217285, 181.16090087366447 12.211713330787244, 190.3370648522312 0.012576187976264919 M167.6527473691836 33.567115581259735 C176.24652930453286 21.021036593547063, 185.3906071442101 11.839303715211507, 196.10702481030995 -1.4910309345073358 M166.30793969686925 34.355965295471854 C175.35388641806026 24.355392445599023, 183.09532920280463 14.180358400323303, 195.69618261236275 -1.2547680439970748 M172.97348328228378 34.94973127974605 C182.31600913319815 25.23825024966838, 191.15725257131135 12.670565304557158, 200.97121966200876 -1.801990141416539 M171.48527973904544 33.87649562174862 C177.7680936741577 27.92412892985086, 184.485836599111 19.72037410507547, 201.7080401334818 -0.7410116663897526 M177.5722741502778 33.942976677184376 C189.16865619622084 19.952127349068817, 199.3318433259928 8.079621160958922, 208.08350120688266 -2.100281075154953 M177.65701861581516 34.6430726315355 C186.2556203237296 25.224758996508246, 194.1151655067138 15.890675532361428, 207.00222983880377 -0.15048961113166115 M181.25888912221586 34.673641539489054 C190.55571268990158 23.844890991871537, 198.06544635213731 14.95380226729186, 211.61496671898186 1.410807905191703 M182.68007513443177 34.74363721379372 C191.93929934648492 23.95261300520874, 201.67739939101764 12.87101052510059, 211.676881473082 0.09790307323835634 M186.87553658811026 34.62272418668326 C196.3652159393143 26.2743637868005, 200.0470681906828 17.129651058222443, 219.58165271331865 0.06969699464666235 M187.37837765561068 35.263893499093314 C195.45945678445446 25.338521708044606, 204.6540831334617 14.570763266332158, 216.8908843345319 -0.010715420209592708 M193.36089194701125 33.35060813468128 C202.32140527662028 22.81439203846331, 210.11535446403357 14.04160956693729, 220.90856271394327 -0.5183084158758362 M192.63814186160525 35.48123550139546 C203.35051042272787 22.92385170409192, 213.2159787394127 9.446550015884753, 222.95916504290685 0.10671298498560589 M197.31106983893105 35.14688545350634 C206.75726776028 24.645511925925327, 215.03278586815026 17.86262921803962, 228.99063948586794 0.16880561864748245 M198.00009298813083 34.98332047627025 C207.31408779826583 21.768151056339537, 218.82475350721322 9.940729768718384, 228.94490977142218 -1.2502403931058979 M202.04365191291993 33.75553340907274 C211.21570263335616 24.349963050619216, 219.65864356546209 16.48366609342413, 230.78861571617142 2.5590669797991836 M202.75474359244083 34.86199556267886 C209.59981544539187 27.47798218254019, 215.76010696302484 20.1841583395191, 230.78666492785976 2.3925643876453364 M207.1586590589901 35.02473782140365 C215.57423534024477 30.157934792548637, 218.08786921184844 23.05175912406235, 232.35816333289443 9.372212103270783 M208.5346157852506 33.83187114119133 C216.66911095126133 26.09546451057677, 223.9590911209598 18.68280891684477, 230.85873647346347 8.5382805109777 M213.60257917619185 33.632069706413404 C219.75179293942392 28.904487306787168, 223.1607415408107 23.845582393134336, 232.47451156302077 16.7977668184172 M214.4095189988135 35.42424747576888 C218.45860595483225 29.164336756249316, 224.89430656494085 22.135092174830262, 230.6270579809202 14.365905241792987 M221.03644211435977 35.58921446910548 C221.01838582359795 29.586053359999255, 227.21778837767513 29.045862978783596, 230.45686388077394 20.726537389427794 M219.46093164723655 34.12345596317622 C221.30498957031844 30.573700226200163, 224.47001959813556 28.38776664173725, 230.50005821246833 21.360122609537463 M225.07585790185033 35.168046864837635 C226.41972018958194 32.1943375783582, 229.80476357781745 29.826338968992566, 230.81119652306376 27.89765164869047 M224.12693183161093 34.55771033900626 C226.4827344746791 32.250796676107235, 228.31336028580853 29.934622020817056, 231.16895150467468 27.08836898960314" style="stroke: rgb(134, 142, 150); stroke-width: 0.5; fill: none;"></path><path d="M-1.328012195552913 -0.8970451346682272 C84.3260682984688 -2.5973798397308396, 170.91928436261608 -0.49544700850689916, 228.99995503652866 -0.848476524712225 M-0.20309031842732242 -0.6210040052811343 C46.41752220396721 -2.143840454002831, 92.49590020253552 -1.7130473849344348, 227.60661894387908 0.5213543877272766 M229.7731886524707 1.589443413540721 C227.89157897748984 11.441132765542717, 228.6026499322895 24.030094380117955, 228.3145436067134 32.33443966321647 M227.86038662400097 0.7227271506562829 C228.58281829158776 11.584243161510676, 227.316888622446 23.00920617096126, 228.38049922790378 32.078230143524706 M228.53562454659297 33.03340858872469 C178.39130528033564 34.80273009282563, 125.41677376032692 34.81886646292743, 0.5975802429735504 33.7210141762518 M228.23532920914056 33.398731224207026 C165.94389775255326 32.818482824962, 103.04747354228134 33.817581286761865, -0.29349302670594263 32.34447507744111 M0.4552952665835619 34.55781325511634 C1.5089970282372087 26.3693580952473, 0.8363819173630327 19.138267971388995, 0.8260607738047838 -1.2203876692801714 M-0.9077306250110269 33.935000092722476 C-0.9213301663380116 24.686414481047542, -0.7893315975647419 16.689081043750047, 0.8471823176369071 0.3376546511426568" style="stroke: rgb(0, 0, 0); stroke-width: 1; fill: none;"></path></g><g><g transform="translate(191.44444444444434 162.00000000000023)"><path d="M0.660749639198184 -0.9541662644594907 C217.65147425445414 -1.0529299091547726, 1085.8934746952104 -0.5163208197802305, 1302.8402482759207 -0.17547302953898902 M0.08379469594918199 0.5537681629601865 C217.21611446352367 0.574602083498612, 1084.3521492741659 -1.3557200638111682, 1301.3029942511673 -1.7045018983539195" style="stroke: rgb(0, 0, 0); stroke-width: 1; fill: none;"></path></g></g><g transform="translate(442.4444444444439 121.00000000000023)"><path d="M-1.2843988572665848 -1.5908775153140984 C59.84946608831457 0.7429834295340535, 117.59089878734649 1.0320871761182544, 229.3229385229847 -1.675981005371066 M-0.26670013706103374 0.762400726838867 C51.98210362306657 -0.7691481532838214, 103.20663236438506 -0.8519301249094713, 227.5769768544015 -0.19511318543798511 M229.4439497012645 0.8960297387093306 C228.09843619831838 12.654274507891387, 228.56249978312292 25.133251012302935, 227.62123567052186 33.66705176047981 M228.4181702574715 -0.5035015931352973 C227.42418389271015 8.980390379857273, 228.37775095055812 17.28746445886791, 227.20517147984356 33.8325035283342 M227.7821660494438 34.05093910174184 C163.94154316020825 35.780231703814124, 102.30881371460903 35.7612895436219, 1.3616779161132417 34.28498790229309 M228.68694395054638 33.09354082400967 C168.50166223445248 33.692099240518786, 109.39760505015977 35.009520757498635, -0.40283774259421634 32.70176403458057 M1.8197628278285265 34.77146211080253 C-2.0528528922144322 19.557162707764654, -1.9953025215212257 8.615719063393772, 1.3829779047518969 1.726440278813243 M-0.9145431676879525 33.08675253484398 C-0.3980630441289395 20.872092650178818, 0.15136926335282624 8.97115442231297, 0.3885694285854697 0.6348872492089868" style="stroke: rgb(0, 0, 0); stroke-width: 1; fill: none;"></path></g><g><g transform="translate(211.4444444444439 307.0000000000002)"><path d="M-0.44766383059322834 0.41923343427479276 C16.475156757359702 0.4585011769086123, 84.29056786807874 0.03489336259663105, 101.01710587851703 0.11786189563572402 M0.06663832596503205 -0.4413673419412225 C16.566357821042963 -0.31495376861654223, 83.5041058662689 0.4376039993111043, 100.61703715524636 0.6605208971444516" style="stroke: rgb(54, 79, 199); stroke-width: 1; fill: none;"></path></g></g><g transform="translate(476.4444444444439 286.0000000000002)"><path d="M-0.347372030466795 0.004717337340116501 C334.3789943308569 -0.633464213851839, 668.3828272754326 -0.9229009118117389, 1015.4471728809178 -0.11786521747708321 M-0.18969811834394934 -0.11787058077752591 C320.62025418458506 -2.229930783342571, 641.747839162685 -2.9394477020017815, 1014.9545407708735 0.03755083121359348 M1014.5710710056126 0.7685119263827801 C1014.8550504178404 140.37902974635364, 1016.3644383639693 281.0765219010413, 1014.5960854299367 552.2397884719073 M1014.8555265840143 -0.2762630458921194 C1012.6776491109878 195.45186757259071, 1012.7922996584922 390.5720395881683, 1015.3660919960588 551.6267417553812 M1015.7779608495533 551.3481687895953 C696.9448632343672 555.5987014161982, 379.98635134305795 554.8999217616953, 0.41520748212933545 551.2803698651493 M1015.0928254898638 551.9792212132364 C668.3413054858335 553.7386386734061, 321.03346796166153 553.7218669634871, -0.2619842354208231 552.1589720014483 M-0.034197615832090376 552.4468861691654 C-1.7064387811422352 367.52867152988915, -1.5275272144079213 182.39640583470464, -0.4584248296916485 -0.6249540455639363 M-0.08206165470182897 551.6018658880145 C0.8376598992496729 438.57513099573555, 0.8831858434826135 325.17259082086383, -0.33746380247175695 -0.11520911417901517" style="stroke: rgb(0, 0, 0); stroke-width: 1; fill: none;"></path></g><g transform="translate(477.4444444444439 165.00000000000023)"><path d="M-0.15294473096728325 -0.39510852172970773 C288.34672102518385 4.431633029386401, 577.092408052087 4.387991009160876, 1012.3881028659641 -0.28655704334378246 M0.1519264277070761 0.04059184826910496 C253.8366429612041 3.765772502362728, 507.32502732612204 3.61758676046133, 1011.7960096772761 0.38313179053366186 M1012.48520267196 1.2181781809777021 C1009.6630720432754 27.244569413084538, 1010.0532563861366 52.324822263233365, 1012.4135071653873 111.40438040904701 M1012.111568315886 -0.4858238687738776 C1013.4996001365502 31.633542489353573, 1012.0973761024792 65.32651819959284, 1011.6886181375012 110.28611531946808 M1011.9871708638966 110.9247711531818 C701.6826276119798 112.08392006017267, 390.15872477143995 110.82273195840419, -0.3607204429805279 111.46349688693881 M1011.7584063347429 110.63218437470496 C625.5059293337166 112.17965489706397, 237.91441996879865 112.1814409264028, 0.2598862823098898 111.17073338069022 M-1.4060511570423841 111.50459840707481 C0.4359983026329426 81.54964681668207, -2.99512549049221 52.052243367768824, 0.9137976784259081 1.9277352970093489 M-0.5509295025840402 111.0819807657972 C-1.0419420901406558 68.95574782742187, -0.3772315386403353 26.405382541939616, -0.6695602992549539 -0.34520533587783575" style="stroke: rgb(0, 0, 0); stroke-width: 1; fill: none;"></path></g><g transform="translate(482.9444444444439 172.00000000000023)"><text x="0" y="23" font-family="Virgil" font-size="20px" fill="#000000">SELECT * FROM ticketing</text><text x="0" y="55" font-family="Virgil" font-size="20px" fill="#000000">-- WHERE </text><text x="0" y="87" font-family="Virgil" font-size="20px" fill="#000000">-- ORDER BY</text></g><g><g transform="translate(492.4444444444439 321.0000000000002)"><path d="M1.432059517875314 0.5449873592704533 C161.89652055439848 1.177014703179399, 804.3262348486732 2.315713634714484, 965.2848193440586 2.5145570542663336 M3.059541896134615 3.626868313997984 C164.75251689429086 3.1363376466929913, 806.5595598093173 0.31822221681475604, 967.2403849966825 0.10417485639452906" style="stroke: rgb(0, 0, 0); stroke-width: 1; fill: none;"></path></g></g><g><g transform="translate(493.4444444444439 360.0000000000002)"><path d="M0.5449873592704533 -1.7151806559413671 C162.34368136984608 -1.923262827222546, 808.1490469680479 0.21286130286753177, 969.5145570542663 0.183566490188241 M3.626868313997984 0.24038499668240565 C164.30300431335965 -0.245456482619047, 806.151555550148 0.42462786510586725, 967.1041748563945 0.14449302032589895" style="stroke: rgb(0, 0, 0); stroke-width: 1; fill: none;"></path></g></g><g><g transform="translate(496.4444444444439 399.0000000000002)"><path d="M-1.7151806559413671 2.5145570542663336 C159.2434038394441 2.713400473818183, 806.0461946362009 1.82795071862638, 967.1835664901882 1.7380478765815495 M0.24038499668240565 0.10417485639452906 C160.9212101840476 -0.10987250402569795, 806.2579611984391 1.6916765253245831, 967.1444930203259 2.342584151476622" style="stroke: rgb(0, 0, 0); stroke-width: 1; fill: none;"></path></g></g><g><g transform="translate(497.4444444444439 438.0000000000002)"><path d="M2.5145570542663336 0.183566490188241 C163.88006714048484 0.15427167750895024, 807.6612840519597 -2.1908611860126257, 968.7380478765815 -1.8909495320171117 M0.10417485639452906 0.14449302032589895 C161.05679416264098 -0.13564182445406936, 807.525009858658 -2.0424460570514205, 969.3425841514767 -1.4404240719974042" style="stroke: rgb(0, 0, 0); stroke-width: 1; fill: none;"></path></g></g><g><g transform="translate(496.4444444444439 474.0000000000002)"><path d="M1.9416863825172186 -0.056629511341452776 C162.71553628705442 -0.11455426278213673, 805.8225348299991 -0.45455445113281406, 966.2368580367416 -0.8257084455341099 M-3.023184338361025 -2.5311970250308518 C158.46695892418424 -3.352437369078398, 808.1943855882188 -2.7666044251620776, 970.4684047357738 -2.5549994628131394" style="stroke: rgb(0, 0, 0); stroke-width: 1; fill: none;"></path></g></g><g><g transform="translate(497.4444444444439 513.0000000000002)"><path d="M-0.056629511341452776 -0.7631419632583856 C161.05211240388454 -1.5154854231824477, 805.3787788822005 -2.8645772987355786, 966.1742915544659 -2.572374377027154 M-2.5311970250308518 3.4684047357738024 C157.81422929758827 4.575757216662169, 803.0667289081712 4.597793001383543, 964.4450005371868 3.6209305469691753" style="stroke: rgb(0, 0, 0); stroke-width: 1; fill: none;"></path></g></g><g><g transform="translate(500.4444444444439 552.0000000000002)"><path d="M-0.7631419632583856 -0.8257084455341099 C159.65118124348422 -1.1968624399354058, 802.9687560345978 -2.67745393179357, 964.4276256229729 -2.283553477749228 M3.4684047357738024 -2.5549994628131394 C165.74242388332885 -2.343394500464201, 810.4311263347169 -1.3740302149951458, 970.6209305469691 -1.2615672509372233" style="stroke: rgb(0, 0, 0); stroke-width: 1; fill: none;"></path></g></g><g><g transform="translate(501.4444444444439 591.0000000000002)"><path d="M-0.8257084455341099 -2.572374377027154 C159.96980422673127 -2.280171455318729, 803.1558794015398 0.8879250592241683, 964.7164465222507 0.9900755669921635 M-2.5549994628131394 3.6209305469691753 C158.82327216620249 2.6440680925548077, 804.4593031183382 -2.2925080306828023, 965.7384327490628 -2.3927699907124045" style="stroke: rgb(0, 0, 0); stroke-width: 1; fill: none;"></path></g></g><g><g transform="translate(496.4444444444439 629.0000000000002)"><path d="M1.4016543660312886 0.05790269635617751 C162.75227987704176 0.20194468361636023, 806.7369554394235 2.2093497461328906, 967.6210558090359 2.1849579717963934 M0.29257554844021794 -3.4857012422382834 C161.55576401705545 -2.6817993839085106, 802.8820658126971 0.0055113641917707845, 964.0753359158338 1.1399932090938094" style="stroke: rgb(0, 0, 0); stroke-width: 1; fill: none;"></path></g></g><g><g transform="translate(497.4444444444439 668.0000000000002)"><path d="M0.05790269635617751 0.6210558090358971 C161.36861135028303 0.33848951198160643, 808.0426830794662 0.18826224741836395, 969.1849579717964 -0.29374341629445544 M-3.4857012422382834 -2.9246640841662885 C158.48486728275816 -2.8980606476962567, 805.8388446975251 -0.3609390990436081, 968.1399932090939 0.452196167260408" style="stroke: rgb(0, 0, 0); stroke-width: 1; fill: none;"></path></g></g><g><g transform="translate(500.4444444444439 707.0000000000002)"><path d="M0.28092961646616477 -2.446483561769128 C161.55837677257753 -2.0281442417452733, 804.3680063042789 0.798980516816179, 965.5919898424297 1.1416839268058538 M-4.118184482306242 0.23685459539294218 C157.46065492625036 1.187278365343809, 807.3757082477708 2.5394948141276834, 969.488174212724 2.0174223987758158" style="stroke: rgb(0, 0, 0); stroke-width: 1; fill: none;"></path></g></g><g><g transform="translate(501.4444444444439 746.0000000000002)"><path d="M-0.7796329114586116 -1.6602690186351536 C160.46278490486245 -0.9431907183180253, 804.1009001877159 2.252961233630776, 965.7542014624923 2.4587959680706257 M-0.1919035537540914 -1.2964432637393477 C160.31820430840054 -1.0864958636462692, 805.0895994782944 -3.0169165818393235, 965.9072160379588 -2.5746316878497604" style="stroke: rgb(0, 0, 0); stroke-width: 1; fill: none;"></path></g></g><g><g transform="translate(64 244)"><path d="M-0.7411768879741429 1.050440600141883 C9.76767031289637 -8.186326179280877, 54.52075229821106 -45.89914638735354, 65.8182094488293 -56.011695561185476 M-0.3689110104739668 -0.6633865888416768 C10.484159151663382 -10.55359005684654, 54.597574086139595 -48.54128795539339, 65.50597002342343 -57.56099932745099" style="stroke: rgb(230, 119, 0); stroke-width: 1; fill: none;"></path></g><g transform="translate(64 244)"><path d="M52.13495335293849 -34.62339724196373 C59.51489941058284 -43.18348327880678, 60.28337979922178 -51.84763500858301, 67.15432324618101 -57.90258359640837 M49.28315013399263 -30.016578977613435 C53.733155544592755 -37.95078108427856, 58.28695565012144 -45.92812025140993, 67.43817978151142 -55.86376666195691" style="stroke: rgb(230, 119, 0); stroke-width: 1; fill: none;"></path></g><g transform="translate(64 244)"><path d="M38.86678270532293 -50.27828945020306 C51.4713750115935 -52.52567333986821, 57.53059826817308 -54.947366218393036, 67.15432324618101 -57.90258359640837 M36.01497948637707 -45.671471185852766 C44.060929596919834 -49.17657120199673, 52.391432598907016 -52.69784190898751, 67.43817978151142 -55.86376666195691" style="stroke: rgb(230, 119, 0); stroke-width: 1; fill: none;"></path></g></g><g><g transform="translate(251 60)"><path d="M0.9453296694904565 -2.391524026170373 C13.22266747094691 7.514823411529262, 60.046567530805866 51.727946196620664, 71.7437327299267 61.72260629199445 M3.1431911547482017 -2.0597691495716575 C14.779469731599093 6.716747353126605, 59.66861261203886 46.58606239403288, 71.00338102653623 56.685531930178406" style="stroke: rgb(230, 119, 0); stroke-width: 1; fill: none;"></path></g><g transform="translate(251 60)"><path d="M39.68827645267456 49.57492833886038 C53.63041797177646 51.059979624143764, 54.1635681091261 51.66999309394297, 74.73155965059996 59.595894110500815 M44.10094381096869 45.44098055477928 C48.342385558983096 50.44513110900955, 55.41398566117313 52.05696221042314, 72.5269418168813 56.48844267718494" style="stroke: rgb(230, 119, 0); stroke-width: 1; fill: none;"></path></g><g transform="translate(251 60)"><path d="M53.3054085932906 34.22260881864322 C64.34681902495265 39.35241194336591, 61.72871874226126 43.51522954527658, 74.73155965059996 59.595894110500815 M57.71807595158473 30.088661034562115 C58.66603217354641 38.8206019441513, 62.30175533468315 44.306132741396, 72.5269418168813 56.48844267718494" style="stroke: rgb(230, 119, 0); stroke-width: 1; fill: none;"></path></g></g><g><g transform="translate(1060 91)"><path d="M-2.29224313236773 1.5317574772983784 C-52.81963351306816 20.83735735354324, -253.11310621239244 96.35002160407603, -304.33481332994995 114.42574998475611 M1.4592609684169293 -1.933793546408415 C-49.323314783523486 17.18541787142555, -255.40929561053716 95.33825042878588, -306.5882786805928 114.19980910614133" style="stroke: rgb(230, 119, 0); stroke-width: 1; fill: none;"></path></g><g transform="translate(1060 91)"><path d="M-281.6011187325686 98.5082811315001 C-286.4066963491953 95.61574872149255, -298.63564097428144 102.64411827758761, -307.0655559036136 115.55097666949034 M-283.14797215009924 94.34696350921104 C-289.0688797416005 99.82052182226727, -293.7026729011333 105.46346781268689, -307.09998729594054 113.51323765523732" style="stroke: rgb(230, 119, 0); stroke-width: 1; fill: none;"></path></g><g transform="translate(1060 91)"><path d="M-274.4013808330519 117.72503883315474 C-280.8726675188483 109.75290584593392, -294.96056620134823 111.81955732306581, -307.0655559036136 115.55097666949034 M-275.9482342505826 113.56372121086568 C-283.74340541289286 114.20579045011513, -290.21483275047706 114.94392306583359, -307.09998729594054 113.51323765523732" style="stroke: rgb(230, 119, 0); stroke-width: 1; fill: none;"></path></g></g><g><g transform="translate(1097 804)"><path d="M-0.4136589612811803 1.8682799961417915 C-14.334109016880394 -19.243020500118536, -69.93671792410315 -103.0442477160444, -83.65630623959005 -124.75849125124515 M-2.470340191572905 3.4886125843226914 C-17.42476224745313 -17.338446810195844, -74.47790935521324 -106.92248549853763, -88.42194215938449 -128.0499756486714" style="stroke: rgb(230, 119, 0); stroke-width: 1; fill: none;"></path></g><g transform="translate(1097 804)"><path d="M-61.81540011924635 -108.04747330222443 C-68.59587997934167 -112.13520222114953, -80.88962965529004 -119.50700381378846, -91.28084890156984 -130.33732767790556 M-65.00962016110252 -108.24311374139205 C-73.86972724834294 -115.26447713707888, -84.41899149265842 -123.00096006717618, -88.22160561554134 -129.60466779597104" style="stroke: rgb(230, 119, 0); stroke-width: 1; fill: none;"></path></g><g transform="translate(1097 804)"><path d="M-79.03921745378771 -96.89130376191213 C-80.88688514153812 -104.22175899234358, -88.09567546425512 -114.88717822783104, -91.28084890156984 -130.33732767790556 M-82.23343749564388 -97.08694420107975 C-84.35875171398479 -108.27234909995946, -88.34996275091572 -120.25659848129791, -88.22160561554134 -129.60466779597104" style="stroke: rgb(230, 119, 0); stroke-width: 1; fill: none;"></path></g></g><g transform="translate(1062 804)"><text x="0" y="23" font-family="Virgil" font-size="20px" fill="#e67700">Data zone</text></g><g transform="translate(134.5 26)"><text x="0" y="23" font-family="Virgil" font-size="20px" fill="#e67700">Main navigation</text></g><g transform="translate(10 239)"><text x="0" y="23" font-family="Virgil" font-size="20px" fill="#e67700">Connection</text><text x="0" y="55" font-family="Virgil" font-size="20px" fill="#e67700">list</text></g><g><g transform="translate(253 539)"><path d="M1.212371161952615 2.3683586146682503 C2.352578226104379 -20.229781048869093, 4.17172059553365 -111.60846632855633, 5.038688651099801 -133.86012276150285 M0.35699002102017374 4.105304664820434 C0.7619856388866897 -18.55122530058026, 4.959435404092074 -112.57360907152294, 6.121475547105074 -134.81386569097637" style="stroke: rgb(230, 119, 0); stroke-width: 1; fill: none;"></path></g><g transform="translate(253 539)"><path d="M18.421765141391774 -107.54299656814591 C9.926348018112101 -112.25001878969641, 11.70894836185212 -116.17287435748035, 7.163433048427105 -134.48331937521695 M15.653780358114858 -104.93647012813643 C12.480301301740585 -117.45608732742483, 7.233421384847653 -128.59501414261916, 7.6974288202077155 -133.97341975338756" style="stroke: rgb(230, 119, 0); stroke-width: 1; fill: none;"></path></g><g transform="translate(253 539)"><path d="M-2.0765161173123765 -108.51277377188788 C-5.7300902807383505 -113.16880499421217, 0.882378247056459 -116.8631586694296, 7.163433048427105 -134.48331937521695 M-4.844500900589292 -105.9062473318784 C0.08000558998652973 -117.77573894064771, 2.930565830152978 -128.53157447253523, 7.6974288202077155 -133.97341975338756" style="stroke: rgb(230, 119, 0); stroke-width: 1; fill: none;"></path></g></g><g transform="translate(203.5 541)"><text x="0" y="23" font-family="Virgil" font-size="20px" fill="#e67700">Database list</text></g><g transform="translate(281.4444444444439 122.50000000000023)"><text x="0" y="23" font-family="Virgil" font-size="20px" fill="#000000">Datas</text></g><g transform="translate(528.9444444444439 121.50000000000023)"><text x="0" y="23" font-family="Virgil" font-size="20px" fill="#000000">Query</text></g><g transform="translate(1072 10)"><text x="0" y="23" font-family="Virgil" font-size="20px" fill="#e67700">Query zone, </text><text x="0" y="55" font-family="Virgil" font-size="20px" fill="#e67700">auto-update with helper,</text><text x="0" y="87" font-family="Virgil" font-size="20px" fill="#e67700">editable</text><text x="0" y="119" font-family="Virgil" font-size="20px" fill="#e67700">Might be a simple filter like sequel pro or HeidiSQL</text></g></svg>